<svg width="152" height="49" viewBox="0 0 152 49" fill="none" xmlns="http://www.w3.org/2000/svg">
<g clip-path="url(#clip0_1_2)">
<path d="M11.3258 49.3161C8.33063 49.3161 5.97632 48.2156 4.26283 46.0145C2.54934 43.8134 1.69259 40.874 1.69259 37.1963C1.69259 33.63 2.54237 30.7672 4.24194 28.6079C5.95543 26.4347 8.30973 25.3481 11.3049 25.3481C14.5647 25.3481 16.8702 26.5044 18.2215 28.8169C18.0822 27.4517 18.0126 26.1352 18.0126 24.8675V17.4494L23.4874 17.0941V48.8773H18.7439L18.1379 45.7429C17.9011 46.119 17.6782 46.4464 17.4692 46.725C17.2742 46.9897 16.9817 47.3031 16.5916 47.6653C16.2015 48.0136 15.7767 48.2992 15.3169 48.5221C14.8712 48.731 14.3 48.9121 13.6034 49.0654C12.9208 49.2325 12.1616 49.3161 11.3258 49.3161ZM12.6213 45.1578C16.2991 45.1578 18.1658 42.6572 18.2215 37.656C18.2215 34.8281 17.7479 32.7663 16.8006 31.4707C15.8533 30.1752 14.4393 29.5274 12.5586 29.5274C10.9148 29.5274 9.59834 30.1891 8.60925 31.5125C7.63409 32.822 7.14651 34.7584 7.14651 37.3217C7.14651 39.871 7.63409 41.8144 8.60925 43.1517C9.59834 44.4891 10.9357 45.1578 12.6213 45.1578ZM25.3822 48.8773V25.9123H30.857V48.8773H25.3822ZM25.3822 22.5689V17.8882H30.8779V22.5689H25.3822ZM40.0656 49.2952C36.6804 49.2952 33.9709 48.7171 31.937 47.5608L32.5012 43.4443C33.4206 43.9458 34.5908 44.3985 36.0117 44.8025C37.4327 45.1926 38.7282 45.3876 39.8984 45.3876C41.1104 45.3876 42.0507 45.1647 42.7194 44.7189C43.402 44.2592 43.7503 43.5905 43.7642 42.7129C43.7642 41.9188 43.4438 41.292 42.803 40.8322C42.1761 40.3725 40.9711 39.8014 39.188 39.1188C38.575 38.8959 38.178 38.7496 37.9969 38.6799C35.8794 37.858 34.354 36.9455 33.4206 35.9425C32.4872 34.9256 32.0206 33.5534 32.0206 31.826C32.0206 29.7363 32.7728 28.1343 34.2773 27.0198C35.7958 25.9054 37.9063 25.3481 40.6089 25.3481C43.5344 25.3481 46.1046 25.8984 48.3196 26.9989L46.9614 30.7812C44.7742 29.7642 42.6916 29.2557 40.7134 29.2557C39.6128 29.2557 38.7491 29.4438 38.1223 29.8199C37.5093 30.1821 37.2028 30.7394 37.2028 31.4916C37.2028 32.2021 37.5023 32.7593 38.1014 33.1633C38.7004 33.5534 39.8706 34.0688 41.6119 34.7096C41.6676 34.7236 41.8487 34.7863 42.1552 34.8977C42.4617 35.0092 42.6985 35.0997 42.8657 35.1694C44.9692 35.9356 46.5156 36.855 47.5047 37.9277C48.4937 38.9864 48.9883 40.3725 48.9883 42.086C48.9744 44.3846 48.1942 46.1608 46.6479 47.4146C45.1016 48.6683 42.9075 49.2952 40.0656 49.2952ZM58.6566 49.1907C57.0963 49.1907 55.7938 49.0096 54.749 48.6474C53.7181 48.2713 52.9101 47.6862 52.325 46.8922C51.7399 46.0981 51.322 45.1647 51.0712 44.0921C50.8344 43.0055 50.716 41.6681 50.716 40.08V29.2348H46.9547L47.1636 26.2676L51.0921 25.9123L52.8474 19.6853L56.1908 19.6644V25.9123H61.8955V29.2348H56.1908V40.1845C56.1908 41.9258 56.4416 43.1657 56.9431 43.904C57.4446 44.6423 58.371 45.0115 59.7223 45.0115C60.5163 45.0115 61.3661 44.9418 62.2716 44.8025L62.4179 48.731C62.39 48.731 62.2159 48.7658 61.8955 48.8355C61.589 48.8912 61.2895 48.94 60.9969 48.9818C60.7183 49.0375 60.3561 49.0863 59.9103 49.128C59.4645 49.1698 59.0466 49.1907 58.6566 49.1907ZM62.453 48.8773V25.9123H67.0502L67.7606 29.4229C69.2652 27.0129 71.4453 25.8079 74.3012 25.8079C74.9002 25.8079 75.3878 25.8357 75.7639 25.8914L75.6803 30.4677C75.1231 30.3841 74.5449 30.3423 73.9459 30.3423C71.9259 30.3423 70.4145 30.8787 69.4114 31.9513C68.4223 33.024 67.9278 34.5146 67.9278 36.4231V48.8773H62.453ZM75.3811 48.8773V25.9123H80.8559V48.8773H75.3811ZM75.3811 22.5689V17.8882H80.8768V22.5689H75.3811ZM95.0377 49.3161C93.4775 49.3161 92.0565 48.9748 90.7749 48.2922C89.5072 47.5957 88.5878 46.8086 88.0166 45.9309L87.4733 48.8564H82.7299V17.4494L88.2047 17.0941V24.1988C88.2047 25.578 88.1629 27.1452 88.0793 28.9005C89.8903 26.5323 92.2516 25.3481 95.1631 25.3481C98.0886 25.3481 100.38 26.4347 102.038 28.6079C103.71 30.7812 104.546 33.623 104.546 37.1336C104.546 40.7835 103.682 43.7299 101.954 45.9727C100.241 48.2016 97.9353 49.3161 95.0377 49.3161ZM93.7213 45.1578C95.3512 45.1578 96.6537 44.4682 97.6289 43.089C98.604 41.7099 99.0916 39.7526 99.0916 37.2172C99.0916 34.6679 98.611 32.7384 97.6498 31.4289C96.7025 30.1194 95.4139 29.4647 93.784 29.4647C90.0784 29.4647 88.2047 31.9653 88.1629 36.9664C88.1629 39.7805 88.6296 41.8492 89.5629 43.1726C90.4963 44.496 91.8824 45.1578 93.7213 45.1578ZM113.211 49.1907C111.637 49.1907 110.327 49.0096 109.282 48.6474C108.251 48.2713 107.436 47.6792 106.837 46.8713C106.238 46.0633 105.82 45.102 105.584 43.9876C105.347 42.8731 105.228 41.487 105.228 39.8292V17.4494L110.703 17.0941V39.7247C110.703 41.7865 110.947 43.1866 111.435 43.9249C111.922 44.6493 112.869 45.0115 114.276 45.0115C114.973 45.0115 115.858 44.9349 116.93 44.7816L117.077 48.6892C117.063 48.6892 116.889 48.7241 116.554 48.7937C116.234 48.8634 115.92 48.9191 115.614 48.9609C115.321 49.0166 114.945 49.0654 114.485 49.1072C114.026 49.1629 113.601 49.1907 113.211 49.1907ZM126.431 49.3161C122.74 49.3161 119.863 48.2574 117.801 46.1399C115.753 44.0085 114.73 41.0691 114.73 37.3217C114.73 33.6718 115.698 30.7672 117.634 28.6079C119.57 26.4487 122.21 25.3621 125.554 25.3481C128.716 25.3481 131.168 26.3372 132.909 28.3154C134.665 30.2936 135.542 32.9195 135.542 36.1933C135.542 36.4301 135.535 36.8132 135.521 37.3426C135.521 37.8719 135.521 38.262 135.521 38.5128H120.246C120.302 40.6581 120.887 42.3228 122.001 43.507C123.13 44.6772 124.676 45.2622 126.64 45.2622C129.148 45.2622 131.558 44.6075 133.87 43.298L134.644 47.1847C132.345 48.6056 129.608 49.3161 126.431 49.3161ZM120.351 35.0649H130.381C130.381 33.1982 129.956 31.7633 129.106 30.7603C128.256 29.7572 127.079 29.2557 125.575 29.2557C124.168 29.2557 122.977 29.7433 122.001 30.7185C121.04 31.6936 120.49 33.1424 120.351 35.0649Z" fill="#111B21"/>
<path d="M139.133 29.7002V20.5667H130" stroke="#25D366" stroke-width="2.5" stroke-linecap="round" stroke-linejoin="round"/>
<path d="M143.675 24.325V16.1083H135.458" stroke="#25D366" stroke-width="2.24905" stroke-linecap="round" stroke-linejoin="round"/>
</g>
<defs>
<clipPath id="clip0_1_2">
<rect width="152" height="49" fill="white"/>
</clipPath>
</defs>
</svg>
