<svg width="152" height="38" viewBox="0 0 152 38" fill="none" xmlns="http://www.w3.org/2000/svg">
<g clip-path="url(#clip0_1_2)">
<path d="M11.3258 36.4388C8.33063 36.4388 5.97632 35.3383 4.26283 33.1372C2.54934 30.9361 1.69259 27.9967 1.69259 24.319C1.69259 20.7527 2.54237 17.8899 4.24194 15.7307C5.95543 13.5574 8.30973 12.4708 11.3049 12.4708C14.5647 12.4708 16.8702 13.6271 18.2215 15.9396C18.0822 14.5744 18.0126 13.2579 18.0126 11.9902V4.57207L23.4874 4.21683V36H18.7439L18.1379 32.8656C17.9011 33.2417 17.6782 33.5691 17.4692 33.8477C17.2742 34.1124 16.9817 34.4258 16.5916 34.788C16.2015 35.1363 15.7767 35.4219 15.3169 35.6448C14.8712 35.8537 14.3 36.0348 13.6034 36.1881C12.9208 36.3552 12.1616 36.4388 11.3258 36.4388ZM12.6213 32.2805C16.2991 32.2805 18.1658 29.7799 18.2215 24.7787C18.2215 21.9508 17.7479 19.889 16.8006 18.5934C15.8533 17.2979 14.4393 16.6501 12.5586 16.6501C10.9148 16.6501 9.59834 17.3118 8.60925 18.6352C7.63409 19.9447 7.14651 21.8811 7.14651 24.4444C7.14651 26.9937 7.63409 28.9371 8.60925 30.2744C9.59834 31.6118 10.9357 32.2805 12.6213 32.2805ZM25.3822 36V13.035H30.857V36H25.3822ZM25.3822 9.69164V5.01089H30.8779V9.69164H25.3822ZM40.0656 36.4179C36.6804 36.4179 33.9709 35.8398 31.937 34.6835L32.5012 30.567C33.4206 31.0685 34.5908 31.5212 36.0117 31.9252C37.4327 32.3153 38.7282 32.5103 39.8984 32.5103C41.1104 32.5103 42.0507 32.2874 42.7194 31.8416C43.402 31.3819 43.7503 30.7133 43.7642 29.8356C43.7642 29.0416 43.4438 28.4147 42.803 27.955C42.1761 27.4952 40.9711 26.9241 39.188 26.2415C38.575 26.0186 38.178 25.8723 37.9969 25.8026C35.8794 24.9807 34.354 24.0683 33.4206 23.0652C32.4872 22.0483 32.0206 20.6761 32.0206 18.9487C32.0206 16.8591 32.7728 15.257 34.2773 14.1425C35.7958 13.0281 37.9063 12.4708 40.6089 12.4708C43.5344 12.4708 46.1046 13.0211 48.3196 14.1216L46.9614 17.9039C44.7742 16.8869 42.6916 16.3784 40.7134 16.3784C39.6128 16.3784 38.7491 16.5665 38.1223 16.9426C37.5093 17.3048 37.2028 17.8621 37.2028 18.6143C37.2028 19.3248 37.5023 19.882 38.1014 20.286C38.7004 20.6761 39.8706 21.1915 41.6119 21.8324C41.6676 21.8463 41.8487 21.909 42.1552 22.0204C42.4617 22.1319 42.6985 22.2224 42.8657 22.2921C44.9692 23.0583 46.5156 23.9777 47.5047 25.0504C48.4937 26.1091 48.9883 27.4952 48.9883 29.2087C48.9744 31.5073 48.1942 33.2835 46.6479 34.5373C45.1016 35.791 42.9075 36.4179 40.0656 36.4179ZM58.6566 36.3134C57.0963 36.3134 55.7938 36.1323 54.749 35.7701C53.7181 35.394 52.9101 34.8089 52.325 34.0149C51.7399 33.2208 51.322 32.2874 51.0712 31.2148C50.8344 30.1282 50.716 28.7908 50.716 27.2027V16.3575H46.9547L47.1636 13.3903L51.0921 13.035L52.8474 6.80796L56.1908 6.78707V13.035H61.8955V16.3575H56.1908V27.3072C56.1908 29.0485 56.4416 30.2884 56.9431 31.0267C57.4446 31.765 58.371 32.1342 59.7223 32.1342C60.5163 32.1342 61.3661 32.0645 62.2716 31.9252L62.4179 35.8537C62.39 35.8537 62.2159 35.8886 61.8955 35.9582C61.589 36.0139 61.2895 36.0627 60.9969 36.1045C60.7183 36.1602 60.3561 36.209 59.9103 36.2508C59.4645 36.2925 59.0466 36.3134 58.6566 36.3134ZM62.453 36V13.035H67.0502L67.7606 16.5456C69.2652 14.1356 71.4453 12.9306 74.3012 12.9306C74.9002 12.9306 75.3878 12.9584 75.7639 13.0141L75.6803 17.5904C75.1231 17.5068 74.5449 17.465 73.9459 17.465C71.9259 17.465 70.4145 18.0014 69.4114 19.0741C68.4223 20.1467 67.9278 21.6373 67.9278 23.5458V36H62.453ZM75.3811 36V13.035H80.8559V36H75.3811ZM75.3811 9.69164V5.01089H80.8768V9.69164H75.3811ZM95.0377 36.4388C93.4775 36.4388 92.0565 36.0975 90.7749 35.4149C89.5072 34.7184 88.5878 33.9313 88.0166 33.0536L87.4733 35.9791H82.7299V4.57207L88.2047 4.21683V11.3216C88.2047 12.7007 88.1629 14.2679 88.0793 16.0232C89.8903 13.655 92.2516 12.4708 95.1631 12.4708C98.0886 12.4708 100.38 13.5574 102.038 15.7307C103.71 17.9039 104.546 20.7458 104.546 24.2563C104.546 27.9062 103.682 30.8526 101.954 33.0954C100.241 35.3244 97.9353 36.4388 95.0377 36.4388ZM93.7213 32.2805C95.3512 32.2805 96.6537 31.5909 97.6289 30.2117C98.604 28.8326 99.0916 26.8753 99.0916 24.3399C99.0916 21.7906 98.611 19.8611 97.6498 18.5516C96.7025 17.2421 95.4139 16.5874 93.784 16.5874C90.0784 16.5874 88.2047 19.088 88.1629 24.0891C88.1629 26.9032 88.6296 28.9719 89.5629 30.2953C90.4963 31.6188 91.8824 32.2805 93.7213 32.2805ZM113.211 36.3134C111.637 36.3134 110.327 36.1323 109.282 35.7701C108.251 35.394 107.436 34.8019 106.837 33.994C106.238 33.186 105.82 32.2247 105.584 31.1103C105.347 29.9958 105.228 28.6097 105.228 26.9519V4.57207L110.703 4.21683V26.8475C110.703 28.9092 110.947 30.3093 111.435 31.0476C111.922 31.772 112.869 32.1342 114.276 32.1342C114.973 32.1342 115.858 32.0576 116.93 31.9043L117.077 35.8119C117.063 35.8119 116.889 35.8468 116.554 35.9164C116.234 35.9861 115.92 36.0418 115.614 36.0836C115.321 36.1393 114.945 36.1881 114.485 36.2299C114.026 36.2856 113.601 36.3134 113.211 36.3134ZM126.431 36.4388C122.74 36.4388 119.863 35.3801 117.801 33.2626C115.753 31.1312 114.73 28.1918 114.73 24.4444C114.73 20.7945 115.698 17.8899 117.634 15.7307C119.57 13.5714 122.21 12.4848 125.554 12.4708C128.716 12.4708 131.168 13.4599 132.909 15.4381C134.665 17.4163 135.542 20.0422 135.542 23.316C135.542 23.5528 135.535 23.9359 135.521 24.4653C135.521 24.9947 135.521 25.3847 135.521 25.6355H120.246C120.302 27.7808 120.887 29.4455 122.001 30.6297C123.13 31.7999 124.676 32.385 126.64 32.385C129.148 32.385 131.558 31.7302 133.87 30.4207L134.644 34.3074C132.345 35.7283 129.608 36.4388 126.431 36.4388ZM120.351 22.1876H130.381C130.381 20.3209 129.956 18.886 129.106 17.883C128.256 16.8799 127.079 16.3784 125.575 16.3784C124.168 16.3784 122.977 16.866 122.001 17.8412C121.04 18.8163 120.49 20.2651 120.351 22.1876Z" fill="#111B21"/>
<path d="M139.133 18.7002V9.56673H130" stroke="#25D366" stroke-width="2.5" stroke-linecap="round" stroke-linejoin="round"/>
<path d="M143.675 13.325V5.10832H135.458" stroke="#25D366" stroke-width="2.24905" stroke-linecap="round" stroke-linejoin="round"/>
</g>
<defs>
<clipPath id="clip0_1_2">
<rect width="152" height="38" fill="white"/>
</clipPath>
</defs>
</svg>
